<svg width="243.569824" height="55.000000" viewBox="0 0 243.57 55" fill="none" xmlns="http://www.w3.org/2000/svg" xmlns:xlink="http://www.w3.org/1999/xlink">
	<desc>
			Created with Pixso.
	</desc>
	<defs/>
	<rect id="company-logo-black" width="243.000000" height="55.000000" transform="translate(0.200195 0.000000)" fill="#FFFFFF" fill-opacity="0"/>
	<path id="KONSTRU T" d="M7.7002 35.9501L10.0801 31.4701L17.5698 51.0001L25.48 51.0001L14.77 23.8401L25.48 2.00006L17.7798 2.00006L7.7002 23.35L7.7002 2.00006L0 2.00006L0 51.0001L7.7002 51.0001L7.7002 35.9501ZM36.3501 39.73C36.3501 41.5034 36.7114 42.7517 37.4351 43.4751C38.1582 44.1984 39.1265 44.5601 40.3398 44.5601C41.5532 44.5601 42.5215 44.1984 43.2451 43.4751C43.9683 42.7517 44.3301 41.5034 44.3301 39.73L44.3301 13.2701C44.3301 11.4967 43.9683 10.2484 43.2451 9.52509C42.5215 8.8017 41.5532 8.44006 40.3398 8.44006C39.1265 8.44006 38.1582 8.8017 37.4351 9.52509C36.7114 10.2484 36.3501 11.4967 36.3501 13.2701L36.3501 39.73ZM31.6602 4.62506C29.6533 6.74841 28.6499 9.7934 28.6499 13.7601L28.6499 39.2401C28.6499 43.2068 29.6533 46.2517 31.6602 48.3751C33.6665 50.4984 36.5601 51.5601 40.3398 51.5601C44.1201 51.5601 47.0132 50.4984 49.02 48.3751C51.0269 46.2517 52.0298 43.2068 52.0298 39.2401L52.0298 13.7601C52.0298 9.7934 51.0269 6.74841 49.02 4.62506C47.0132 2.50171 44.1201 1.44006 40.3398 1.44006C36.5601 1.44006 33.6665 2.50171 31.6602 4.62506ZM64.6499 51.0001L64.6499 15.5101L74.2402 51.0001L82.1499 51.0001L82.1499 2.00006L75.29 2.00006L75.29 31.3301L67.3799 2.00006L57.7202 2.00006L57.7202 51.0001L64.6499 51.0001ZM90.3252 4.62506C88.4351 6.74841 87.4902 9.7934 87.4902 13.7601C87.4902 16.0934 87.8633 18.1234 88.6099 19.85C89.3564 21.5767 90.29 23.1167 91.4102 24.4701C92.5298 25.8234 93.7314 27.0717 95.0151 28.2151C96.2983 29.3584 97.5 30.5017 98.6201 31.6451C99.7402 32.7884 100.673 34.0017 101.42 35.285C102.167 36.5684 102.54 38.05 102.54 39.73C102.54 41.5034 102.178 42.7401 101.455 43.4401C100.731 44.1401 99.7632 44.4901 98.5498 44.4901C97.3364 44.4901 96.3682 44.1401 95.645 43.4401C94.9219 42.7401 94.5601 41.5034 94.5601 39.73L94.5601 36.23L87.2798 36.23L87.2798 39.2401C87.2798 43.2068 88.2485 46.2517 90.1851 48.3751C92.1216 50.4984 94.98 51.5601 98.7598 51.5601C102.54 51.5601 105.398 50.4984 107.335 48.3751C109.271 46.2517 110.24 43.2068 110.24 39.2401C110.24 36.9067 109.867 34.8767 109.12 33.1501C108.374 31.4234 107.44 29.8834 106.32 28.5301C105.2 27.1767 103.999 25.9284 102.715 24.785C101.432 23.6417 100.23 22.4984 99.1099 21.355C97.9902 20.2117 97.0566 18.9984 96.3101 17.7151C95.5635 16.4317 95.1899 14.9501 95.1899 13.2701C95.1899 11.4967 95.5283 10.2484 96.2051 9.52509C96.8818 8.8017 97.8267 8.44006 99.04 8.44006C100.253 8.44006 101.198 8.8017 101.875 9.52509C102.552 10.2484 102.89 11.4967 102.89 13.2701L102.89 15.3L110.17 15.3L110.17 13.7601C110.17 9.7934 109.225 6.74841 107.335 4.62506C105.445 2.50171 102.61 1.44006 98.8301 1.44006C95.0498 1.44006 92.2148 2.50171 90.3252 4.62506ZM137 2.00006L113.2 2.00006L113.2 9.00006L121.25 9.00006L121.25 51.0001L128.95 51.0001L128.95 9.00006L137 9.00006L137 2.00006ZM156.97 50.0901C157.063 50.3701 157.157 50.6734 157.25 51.0001L165.09 51.0001C164.717 50.0667 164.483 49.1451 164.39 48.2351C164.297 47.3251 164.25 46.2634 164.25 45.05L164.25 37.4901C164.25 34.9234 163.888 32.7418 163.165 30.9451C162.441 29.1484 161.1 27.8534 159.14 27.0601C162.5 25.4734 164.18 22.1601 164.18 17.1201L164.18 13.2701C164.18 9.49005 163.282 6.66675 161.485 4.80005C159.688 2.93341 156.783 2.00006 152.77 2.00006L141.15 2.00006L141.15 51.0001L148.85 51.0001L148.85 31.05L151.51 31.05C153.283 31.05 154.566 31.5167 155.36 32.4501C156.153 33.3834 156.55 34.9934 156.55 37.2801L156.55 44.9801C156.55 45.9601 156.562 46.7767 156.585 47.4301C156.608 48.0834 156.655 48.6201 156.725 49.0401C156.795 49.4601 156.876 49.8101 156.97 50.0901ZM148.85 9.00006L148.85 24.05L151.86 24.05C153.307 24.05 154.438 23.6768 155.255 22.9301C156.072 22.1834 156.48 20.8301 156.48 18.8701L156.48 14.04C156.48 12.2667 156.165 10.9834 155.535 10.1901C154.905 9.39673 153.914 9.00006 152.56 9.00006L148.85 9.00006ZM177.43 39.8L177.43 2.00006L169.73 2.00006L169.73 39.3101C169.73 43.2768 170.698 46.3217 172.635 48.4451C174.572 50.5684 177.43 51.6301 181.21 51.6301C184.99 51.6301 187.848 50.5684 189.785 48.4451C191.722 46.3217 192.69 43.2768 192.69 39.3101L192.69 2.00006L185.41 2.00006L185.41 39.8C185.41 41.5734 185.048 42.8101 184.325 43.5101C183.602 44.2101 182.633 44.5601 181.42 44.5601C180.207 44.5601 179.238 44.2101 178.515 43.5101C177.792 42.8101 177.43 41.5734 177.43 39.8ZM243.57 2.00006L219.77 2.00006L219.77 9.00006L227.82 9.00006L227.82 51.0001L235.52 51.0001L235.52 9.00006L243.57 9.00006L243.57 2.00006Z" clip-rule="evenodd" fill="#171819" fill-opacity="1.000000" fill-rule="evenodd"/>
	<path id="Triangle" d="M196.34 27.46L216.34 2.46L216.34 52.46L196.34 27.46Z" fill="#00A4E5" fill-opacity="1.000000" fill-rule="evenodd"/>
	<path id="Triangle" d="M216.34 2.46L216.34 52.46L196.34 27.46L216.34 2.46Z" stroke="#979797" stroke-opacity="0" stroke-width="0.000000"/>
</svg>
